<svg width="28" height="28" viewBox="0 0 28 28" fill="none" xmlns="http://www.w3.org/2000/svg">
  <g clip-path="url(#clip0_1_18337)">
    <path fill-rule="evenodd" clip-rule="evenodd" d="M20.7808 14.4968C20.7808 16.8154 19.2545 18.8565 17.4606 20.9252V24.1252C17.4606 24.492 17.1633 24.7893 16.7966 24.7893H11.4844C11.1176 24.7893 10.8203 24.492 10.8203 24.1252V20.8051L10.8205 20.7898C9.07713 18.815 7.50012 16.6329 7.50012 14.4968C7.50012 10.8294 10.4731 7.85645 14.1404 7.85645C17.8078 7.85645 20.7808 10.8294 20.7808 14.4968ZM18.0189 14.1919C18.0754 14.461 18.3394 14.6335 18.6086 14.577C18.8777 14.5205 19.0502 14.2565 18.9937 13.9873L18.9877 13.9586L18.9877 13.9586L18.9828 13.9354C18.7958 13.0436 18.6103 12.1592 17.8052 11.2266C17.4292 10.7674 17.0776 10.4621 16.691 10.2318C16.3123 10.0061 15.9172 9.86376 15.4942 9.715C15.2348 9.62373 14.9505 9.76008 14.8592 10.0195C14.7679 10.279 14.9043 10.5633 15.1637 10.6546C15.5947 10.8062 15.8996 10.9197 16.1811 11.0874C16.4533 11.2496 16.721 11.4738 17.0383 11.8622L17.0428 11.8677L17.0474 11.8731C17.6804 12.6043 17.8249 13.2673 18.0128 14.1631L18.0129 14.1631L18.0189 14.1919Z" fill="#1562D3" />
    <rect x="22.9999" y="15" width="2" height="5" rx="1" transform="rotate(-90 22.9999 15)" fill="#1562D3" />
    <rect x="-6.10352e-05" y="15" width="2" height="5" rx="1" transform="rotate(-90 -6.10352e-05 15)" fill="#1562D3" />
    <rect x="21.9648" y="7.85645" width="2" height="5" rx="1" transform="rotate(-135 21.9648 7.85645)" fill="#1562D3" />
    <rect width="2" height="5" rx="1" transform="matrix(0.707107 -0.707107 -0.707107 -0.707107 6.08572 7.85645)" fill="#1562D3" />
    <rect x="14.9999" y="5" width="2" height="5" rx="1" transform="rotate(180 14.9999 5)" fill="#1562D3" />
    <path d="M16.6343 26.6318L11.6699 26.6318" stroke="#1562D3" stroke-width="1.5" stroke-linecap="round" />
  </g>
  <defs>
    <clipPath id="clip0_1_18337">
      <rect width="28" height="28" fill="white" />
    </clipPath>
  </defs>
</svg>