<svg width="46" height="46" viewBox="0 0 46 46" fill="none" xmlns="http://www.w3.org/2000/svg">
<path d="M39.4297 23.6126L41.3072 22.6738V27.8371C41.3072 28.3556 40.8869 28.7759 40.3685 28.7759C39.85 28.7759 39.4297 28.3556 39.4297 27.8371V23.6126Z" fill="#006CDC"/>
<path d="M7.32812 24.8075C7.32812 24.467 7.67931 24.2398 7.9899 24.3794L22.8041 31.0359C22.9271 31.0912 23.068 31.0909 23.1907 31.0351L36.7957 24.853C37.1064 24.7118 37.4592 24.939 37.4592 25.2803V28.0542C37.4592 28.2324 37.3583 28.3952 37.1988 28.4745L23.4061 35.3307C23.2807 35.3931 23.1339 35.3961 23.006 35.3391L7.60628 28.4692C7.43709 28.3937 7.32812 28.2257 7.32812 28.0405V24.8075Z" fill="#006CDC"/>
<path d="M22.8419 10.1494L2.05605 18.7351C1.28858 19.0522 1.28031 20.1362 2.04286 20.4649L22.8286 29.4239C23.0678 29.527 23.3389 29.5261 23.5774 29.4215L43.9986 20.4624C44.7538 20.1311 44.7455 19.057 43.9853 18.7374L23.5642 10.1516C23.3334 10.0546 23.0734 10.0538 22.8419 10.1494Z" fill="#006CDC"/>
</svg>
