<svg width="46" height="46" viewBox="0 0 46 46" fill="none" xmlns="http://www.w3.org/2000/svg">
<path d="M45.1908 36.5294C45.1908 30.2279 39.1774 25.1289 34.0757 25.1289H31.6562C35.6886 29.1613 36.1338 34.6047 35.9532 36.5294H45.1908Z" fill="#F8F9FA"/>
<path d="M1.00058 36.5294C1.00058 30.2279 7.01396 25.1289 12.1157 25.1289H14.5352C10.5028 29.1613 10.0576 34.6047 10.2382 36.5294H1.00058Z" fill="#F8F9FA"/>
<path d="M23.1043 22.1348C16.676 22.1348 11.4648 28.5714 11.4648 36.5114H34.8777C34.8777 28.5714 29.5326 22.1348 23.1043 22.1348Z" fill="#F8F9FA"/>
<ellipse cx="34.3927" cy="19.2476" rx="4.45914" ry="4.56398" fill="#F8F9FA"/>
<ellipse cx="11.9164" cy="19.2478" rx="4.45939" ry="4.56423" fill="#F8F9FA"/>
<ellipse cx="23.06" cy="14.7506" rx="5.61855" ry="5.75064" fill="#F8F9FA"/>
</svg>
