<svg width="46" height="46" viewBox="0 0 46 46" fill="none" xmlns="http://www.w3.org/2000/svg">
<path fill-rule="evenodd" clip-rule="evenodd" d="M20.0802 29.5947L26.9089 36.7807C27.0748 37.0036 27.255 37.4344 27.297 37.8691C27.3409 38.324 27.225 38.6057 27.02 38.7371C26.7382 38.9179 26.5377 38.9558 26.3879 38.9531C26.2242 38.9501 26.0696 38.8993 25.8566 38.8144C25.7848 38.7857 25.7172 38.7507 25.6549 38.71C25.5916 38.6686 25.5337 38.6213 25.4827 38.5689L18.3427 31.2431L17.6158 31.9297L22.6409 37.4181C22.8373 37.6327 22.8777 37.8438 22.8312 37.9777C22.6471 38.5073 22.2533 38.6672 21.8965 38.6876C21.8516 38.6902 21.7913 38.677 21.7192 38.6348C21.6692 38.6055 21.6136 38.5623 21.5536 38.5007C19.8374 36.741 17.3511 34.2 15.1912 32.0112C13.0444 29.8357 11.1901 27.977 10.7599 27.6093C10.3813 27.2856 10.2736 26.9072 10.2543 26.3943C10.2467 26.1902 10.2534 25.9847 10.261 25.7555L10.2615 25.7393C10.2638 25.6687 10.2661 25.5958 10.2682 25.52C10.2766 25.2043 10.2777 24.8553 10.2279 24.4977C10.136 23.8374 9.7124 23.2477 9.297 22.8088C9.05212 22.5501 8.78845 22.3212 8.54688 22.1353L14.4136 15.4824C14.6357 15.7999 14.9048 16.1483 15.1945 16.4618C15.434 16.7211 15.7 16.9703 15.9764 17.1581C16.2444 17.3401 16.5745 17.5007 16.9312 17.5007C17.2927 17.5007 17.7161 17.4589 18.1226 17.4188C18.3308 17.3982 18.5347 17.3781 18.7234 17.3642C19.3275 17.32 19.8556 17.3284 20.2808 17.4738C20.8024 17.6522 21.6858 18.0128 22.4563 18.338L19.3302 19.5497C19.28 19.5692 19.2212 19.5859 19.1449 19.6042C18.7612 19.6963 18.238 19.8944 17.7988 20.2394C17.3523 20.5902 16.9579 21.125 16.9579 21.8645C16.9579 22.6241 17.3188 23.1351 17.776 23.4353C18.2062 23.7178 18.7034 23.8056 19.0381 23.8056H19.0603L22.4396 23.5041C22.7164 23.4794 22.9894 23.5834 23.1796 23.7861L31.7444 32.9117C31.8716 33.6168 31.6637 33.9739 31.4398 34.1721C31.2203 34.3666 30.9163 34.4683 30.6487 34.5019L22.9076 26.5594L22.1914 27.2574L30.0747 35.3458C30.2921 35.626 30.5408 36.2719 30.0621 36.8612C29.7893 37.1971 29.5519 37.2655 29.3997 37.2713C29.2372 37.2775 29.099 37.2146 29.0271 37.1621L20.7969 28.8974L20.0802 29.5947ZM35.9802 28.2606L32.2203 31.9576L23.9087 23.1017C23.5082 22.675 22.9337 22.4561 22.3507 22.5081L19.0179 22.8054C18.826 22.8017 18.5453 22.7442 18.325 22.5994C18.1237 22.4673 17.9579 22.2577 17.9579 21.8645C17.9579 21.523 18.1294 21.2514 18.4166 21.0257C18.7113 20.7942 19.0901 20.6457 19.3782 20.5766C19.4708 20.5544 19.5798 20.5254 19.6917 20.4821L27.0159 17.6431C27.201 17.5714 27.4232 17.5604 27.661 17.6097C28.0167 17.6834 28.457 17.7444 28.8922 17.7391C29.3158 17.7339 29.7971 17.6657 30.1857 17.4265C30.6085 17.1662 31.0165 16.7391 31.3407 16.3461C31.4946 16.1595 31.637 15.9717 31.761 15.798L38.2789 22.1671C38.0194 22.3705 37.7377 22.6166 37.4833 22.8852C37.2655 23.1152 37.0566 23.3732 36.8999 23.6456C36.7452 23.9143 36.6219 24.2303 36.6219 24.5666C36.6219 24.7741 36.6342 25.0209 36.6467 25.2738L36.6475 25.2856C36.6515 25.3661 36.6556 25.4471 36.6593 25.5276C36.6754 25.8764 36.6864 26.2372 36.6703 26.5847C36.6364 27.32 36.4855 27.8283 36.1965 28.072L36.1643 28.0988L36.1642 28.0989C36.1147 28.1398 36.0419 28.1999 35.9802 28.2606Z" fill="#F8F9FA"/>
<path d="M37.2512 10.6753L43.3456 16.5185C44.1819 17.3204 44.1641 18.6629 43.3067 19.4422L41.3806 21.1929C40.6034 21.8994 39.4122 21.8843 38.6531 21.1584L32.7289 15.4933C31.9444 14.7431 31.9015 13.5041 32.6322 12.7014L34.3881 10.7726C35.1453 9.94085 36.4393 9.8969 37.2512 10.6753Z" fill="#F8F9FA"/>
<path d="M8.64749 10.0737L3.01817 16.3681C2.24099 17.2371 2.3688 18.5839 3.29557 19.2912L5.43345 20.9228C6.26279 21.5558 7.43933 21.4449 8.13584 20.6682L13.606 14.5679C14.3361 13.7538 14.2769 12.5043 13.4732 11.7627L11.4945 9.93703C10.6738 9.17978 9.39192 9.2413 8.64749 10.0737Z" fill="#F8F9FA"/>
</svg>
