<svg width="46" height="46" viewBox="0 0 46 46" fill="none" xmlns="http://www.w3.org/2000/svg">
<g clip-path="url(#clip0_2329_134428)">
<path d="M4.30159 33.9091C4.49818 33.5159 4.90005 33.2676 5.33965 33.2676H40.4634C40.903 33.2676 41.3048 33.5159 41.5014 33.9091L43.8226 38.5515C44.2084 39.3231 43.6473 40.2311 42.7845 40.2311H3.01849C2.15573 40.2311 1.59459 39.3231 1.98043 38.5515L4.30159 33.9091Z" fill="white"/>
<rect x="4.61328" y="21.6641" width="4.06203" height="9.86494" rx="1.16058" fill="white"/>
<rect x="12.7422" y="21.6641" width="4.06203" height="9.86494" rx="1.16058" fill="white"/>
<rect x="20.8594" y="21.6641" width="4.06203" height="9.86494" rx="1.16058" fill="white"/>
<rect x="28.9844" y="21.6641" width="4.06203" height="9.86494" rx="1.16058" fill="white"/>
<rect x="37.1094" y="21.6641" width="4.06203" height="9.86494" rx="1.16058" fill="white"/>
<path d="M22.6226 6.32236C22.9768 6.1223 23.4099 6.12231 23.7641 6.32236L42.4664 16.8854C43.5054 17.4722 43.0889 19.0565 41.8957 19.0565H4.49104C3.29782 19.0565 2.88133 17.4722 3.92029 16.8854L22.6226 6.32236Z" fill="white"/>
</g>
<defs>
<clipPath id="clip0_2329_134428">
<rect width="46" height="46" fill="white"/>
</clipPath>
</defs>
</svg>
